<?xml version="1.0" encoding="utf-8"?>
<!-- Generator: Adobe Illustrator 26.0.1, SVG Export Plug-In . SVG Version: 6.00 Build 0)  -->
<svg version="1.1" id="Layer_1" xmlns="http://www.w3.org/2000/svg" xmlns:xlink="http://www.w3.org/1999/xlink" x="0px" y="0px"
	 viewBox="0 0 1366 768" style="enable-background:new 0 0 1366 768;" xml:space="preserve">
<style type="text/css">
	.st0{fill:#FFFFFF;stroke:#000000;stroke-miterlimit:10;}
</style>
<g>
	<path class="st0" d="M787.2,296.2c-7.9,11.5-16.9,22.1-26.9,31.7c-9.9,9.5-20.7,18-32.3,25.5c-12.1,7.7-25,14.2-38.6,19.2
		c-22.3,8.3-46.5,12.9-71.8,12.9c-1.7,0-3.4,0-5.1-0.1c-2.2,10.3-5,20.4-8.5,30.2c-0.1,0.3-0.2,0.5-0.3,0.8
		c-3.5,9.8-7.7,19.4-12.4,28.6c-5,9.7-10.6,18.9-16.9,27.8c-6.4,9.1-13.4,17.7-21,25.7c-10.2-4.1-20-9-29.2-14.9
		c7.6-7.4,14.6-15.4,21-23.9c6.3-8.3,11.9-17.1,16.8-26.4c3.6-6.8,6.9-13.8,9.8-20.9c1-2.6,2-5.3,3-7.9c2.5-7.2,4.7-14.6,6.4-22.1
		c-10.4-1.9-20.5-4.5-30.3-7.9c-1.7-0.6-3.4-1.2-5-1.8c-6-2.2-11.8-4.7-17.5-7.4c-2.3-1.1-4.6-2.3-6.9-3.5
		c-4.9-2.6-9.6-5.4-14.3-8.3c-2.7-1.7-5.4-3.5-8-5.4c-2.3-1.6-4.7-3.4-6.9-5.1c-6.1-4.7-11.9-9.7-17.4-15c-2.8-2.8,1,1.2,0-0.1
		c-2.8-2.6-0.6-0.5-0.8-0.7c-6.8-6.6-13.1-13.7-18.9-21.2c-0.4-1-0.9-2-1.3-3c-1.5-3.3-3.2-6.4-5.1-9.4c3-12,7.3-23.4,12.7-34.3
		c0.8,0.8,1.5,1.5,2.2,2.3c4.3,8.1,9.2,15.8,14.7,23.1c1.3,1.7,2.6,3.4,4,5c0.1,0.1,0.2,0.2,0.2,0.3c-0.5-0.5-0.4-0.7,0-0.1
		c5.1,6.4,10.8,12.4,16.8,17.9c2.8,2.6,5.7,5.2,8.7,7.6c4.9,4,9.8,7.5,15.5,11.2c-2.1-1.4,3,1.8,0.4,0.4c-3-2.1,3.8,2.2,0.4,0.1
		c4.2,2.7,8.5,5.2,13,7.5c5.2,2.7,10.7,5.2,16.2,7.4c0.5,0.2,1,0.4,1.5,0.5c9.9,3.8,20.2,6.8,30.9,8.7c0.4-4.9,0.5-9.9,0.5-14.9
		c0-5.8-0.2-11.5-0.7-17.1c-3.8-0.9-7.5-1.9-11.2-3c-7.6-2.4-14.9-5.4-21.9-9c-2.5-1.3-4.9-2.6-7.3-4c-0.2-0.1-0.4-0.2-0.7-0.4
		c-8.8-5.2-17-11.4-24.4-18.3c-0.3-0.3-0.7-0.6-1-0.9c-3.7-3.5-7.2-7.2-10.5-11c0,0,0,0,0,0c-3.4-4-6.6-8.1-9.5-12.5
		c-0.4-0.6-0.8-1.3-1.2-1.9c0.4-0.6,0.8-1.3,1.2-1.9c2.9-4.3,6.1-8.5,9.5-12.5c3.3-3.9,6.8-7.6,10.5-11.1c0.3-0.3,0.7-0.6,1-0.9
		c5.5,7.3,10.4,15,14.7,23.1c0,0,0,0,0,0c0.7,0.8,1.4,1.5,2.2,2.3c0.3,0.3,0.6,0.6,0.9,1c7.1,7.3,15.2,13.6,24.1,18.7
		c0.3,0.2,0.7,0.4,1,0.5c5.3,3,11,5.6,16.8,7.7c3.7,1.4,7.6,2.5,11.5,3.4c7.1,1.7,14.5,2.8,22,3c1.4,0.1,2.8,0.1,4.2,0.1
		c19.8,0,38.4-5.2,54.5-14.2c9.3-5.2,17.7-11.7,25.1-19.2c7.4-7.5,13.7-16.1,18.8-25.4c8,7.6,15.2,16.1,21.2,25.4
		c-6.1,9.3-13.2,17.8-21.2,25.4c-7.7,7.3-16.2,13.8-25.4,19.2c-21.4,12.7-46.3,20.1-73,20.1h-0.4c0.2,4.5,0.4,9,0.4,13.5
		c0,6-0.2,11.9-0.7,17.8c0.2,0,0.4,0,0.7,0c29,0,56.3-7.1,80.3-19.6c10.4-5.4,20.2-11.9,29.3-19.2c9.4-7.6,17.9-16.1,25.5-25.5
		c7.9-9.7,14.8-20.4,20.5-31.7C779.4,270.2,784.1,282.9,787.2,296.2z"/>
	<path class="st0" d="M841.4,257.7c-5.4-15.6-12.4-30.4-20.8-44.2c-8.2-13.6-17.8-26.3-28.5-37.9c-10.8-11.7-22.8-22.4-35.7-31.7v0
		c-14-10.1-29.1-18.6-45.1-25.5c-28.6-12.3-60.2-19.1-93.3-19.1c-0.6,0-1.2,0-1.7,0c-4,0.1-8,0.5-11.8,1.1c-0.1-0.3-0.2-0.5-0.3-0.8
		c-10.8,0.6-21.5,2-31.9,4c-10.4,2-20.6,4.8-30.5,8.1c0,0,0,0,0,0c-5.8,2-11.5,4.2-17.1,6.6c-4,1.7-7.9,3.5-11.8,5.4
		c-4.5,2.2-8.9,4.6-13.2,7.1c-4.8,2.8-9.5,5.7-14.1,8.8c-2,1.4-4,2.7-6,4.1v0c-3.1,2.2-6.2,4.6-9.1,6.9c-3.8,3-7.6,6.2-11.2,9.5
		c-4.8,4.4-9.5,8.9-13.9,13.6c-0.5,0.6-1,1.1-1.5,1.6c-7,7.6-13.5,15.6-19.5,24.1c-3.2,4.5-6.2,9.1-9,13.9
		c-2.8,4.5-5.4,9.2-7.8,13.9c-4.9,9.4-9.1,19.2-12.7,29.3c-0.1,0.3-0.2,0.7-0.3,1c0.1,0.3-0.3,0.3-0.2,0.6c-1.2,3.1,0,0.5-0.2,0.5
		c-3.6,10.4-6.5,21.2-8.6,32.2c-2,10.2-3.3,20.7-3.9,31.4c-0.2,4.5-0.4,9-0.4,13.5c0,6,0.2,11.9,0.7,17.8c0.8,10.6,2.3,21,4.4,31.2
		c2.2,10.3,5,20.4,8.5,30.2c0.1,0.3,0.2,0.5,0.3,0.8c3.5,9.8,7.7,19.4,12.4,28.6c5,9.7,10.6,18.9,16.9,27.8
		c6.4,9.1,13.4,17.7,21,25.7c7.8,8.3,16.2,16,25.1,23.1c9.2,7.3,18.9,14,29.2,19.9c34.8,20.2,75.3,31.7,118.4,31.7
		c130.8,0,236.8-106,236.8-236.8C854.7,308.5,850,282.2,841.4,257.7z M617.9,541.3c-32,0-62.2-7.3-89.2-20.3
		c-10.2-4.9-20-10.7-29.2-17.2c-8.9-6.3-17.3-13.3-25.1-20.9c-7.6-7.4-14.6-15.4-21-23.9c-6.3-8.3-11.9-17.1-16.8-26.4
		c-3.6-6.8-6.9-13.8-9.8-20.9c-1-2.6-2-5.3-3-7.9c-2.5-7.2-4.7-14.6-6.4-22.1c-2.3-10.1-3.9-20.4-4.6-31c-0.4-4.9-0.5-9.9-0.5-14.9
		c0-5.8,0.2-11.5,0.7-17.1c0.5-5.7,1.2-11.3,2.1-16.9c1-5.9,2.2-11.6,3.7-17.3c1.5-5.6,3.1-11.2,5.1-16.7c1.2-3.4,2.5-6.8,3.9-10.2
		c2.6-6.4,5.6-12.6,8.8-18.7c0.3-0.5,0.3-0.5,0.6-1.1c0.6-1.2,0.5-1,1.1-2c0.1,0,0,0,0,0c3.1-5.6,6.5-11,10-16.2
		c1.6-2.4,3.4-4.8,5.1-7.1c0.7-0.9,1.3-1.8,2-2.6c5.8-7.5,12.1-14.6,18.9-21.2c0.3-0.3,0.5-0.5,0.8-0.8c5.5-5.3,11.3-10.3,17.4-14.9
		c2.3-1.8,4.6-3.5,6.9-5.1c2.6-1.9,5.3-3.7,8-5.4c4.6-3,9.4-5.7,14.3-8.3c2.3-1.2,4.6-2.4,6.9-3.5c5.7-2.7,11.5-5.2,17.5-7.4
		c1.7-0.6,3.3-1.2,5-1.8c9.8-3.4,19.9-6,30.3-7.9c10.2-1.8,20.7-2.9,31.3-3.2c1.7-0.1,3.4-0.1,5.1-0.1c25.2,0,49.4,4.6,71.8,12.9
		c13.6,5.1,26.5,11.5,38.6,19.2c11.6,7.4,22.4,15.9,32.3,25.4c10,9.6,19,20.3,26.9,31.7c8.1,11.8,15,24.5,20.6,38
		c5.8,14,10,28.8,12.6,44.2c1.8,11,2.8,22.4,2.8,34C823.4,449.4,731.4,541.3,617.9,541.3z"/>
</g>
</svg>
